<svg version="1.1" id="Layer_1" xmlns="http://www.w3.org/2000/svg" xmlns:xlink="http://www.w3.org/1999/xlink" x="0px" y="0px"
	 width="100%" viewBox="0 0 1200 662" enable-background="new 0 0 1200 662" xml:space="preserve">
<path fill="#000000" opacity="1.000000" stroke="none" 
	d="
M1201.000000,106.000015 
	C1201.000000,291.614410 1201.000000,477.228851 1201.000000,663.000000 
	C893.971985,663.000000 586.943909,663.000000 279.117096,662.691284 
	C279.351074,661.961487 280.347900,661.353394 281.421906,661.147034 
	C302.567108,657.084473 323.755402,653.238831 344.867432,649.012207 
	C416.494141,634.672913 487.257782,616.921509 556.932495,594.919128 
	C638.964111,569.014648 718.413208,536.955750 794.021851,495.682953 
	C839.327393,470.951752 882.878662,443.494934 924.325928,412.720184 
	C930.379822,408.225128 936.384705,403.664062 942.543762,399.034637 
	C938.038208,396.201843 934.061218,393.798737 930.186462,391.240814 
	C925.246277,387.979492 924.665771,384.292297 927.979675,379.435516 
	C929.266541,377.549438 930.515686,375.544250 931.283325,373.413635 
	C934.396179,364.774078 937.337341,356.072113 940.263123,347.366730 
	C940.497986,346.667938 940.026978,345.762878 940.063599,344.961914 
	C940.577759,333.722839 941.200989,322.488190 941.631653,311.246063 
	C941.891541,304.461761 943.149719,297.364868 941.645020,290.951355 
	C939.701355,282.666718 939.320129,274.974976 942.511108,266.869751 
	C943.832886,265.114105 944.920288,263.569000 946.312012,261.823242 
	C946.558167,260.284149 946.500122,258.945740 946.447876,257.654572 
	C946.453674,257.701813 946.546326,257.680084 946.398071,257.357819 
	C945.835938,255.689468 945.422058,254.343399 945.059692,252.595642 
	C946.265137,249.841797 946.831665,246.269821 948.687744,245.376175 
	C953.427124,243.094299 958.528137,243.274445 961.925598,247.243607 
	C965.859985,242.483200 969.807495,238.056610 973.275513,233.281769 
	C974.222717,231.977585 974.554688,229.109665 973.760193,227.843399 
	C969.458801,220.988327 964.715210,214.410721 960.088623,207.410110 
	C959.358337,205.721329 958.663330,204.359940 957.924316,202.631668 
	C952.951477,190.970306 950.448303,179.083649 949.308167,166.563126 
	C949.271179,165.829880 949.167542,165.414001 949.115723,164.554672 
	C949.206055,161.449249 949.244629,158.787262 949.449097,155.754761 
	C949.965332,152.284256 950.113953,149.145111 950.707092,146.092331 
	C952.012634,139.372299 953.542664,132.695862 955.018433,125.794502 
	C955.055725,125.587364 955.061951,125.166458 955.347290,125.012024 
	C955.744141,124.241058 955.855713,123.624535 956.099609,122.650665 
	C959.190308,116.901070 962.148743,111.508835 965.076294,106.105316 
	C965.045532,106.094025 965.055115,106.158890 965.309326,106.053375 
	C965.687561,105.635757 965.811584,105.323654 966.095093,104.694473 
	C969.876160,99.693878 973.497742,95.010361 977.438110,90.194778 
	C982.146973,86.550781 986.385742,82.826424 990.955811,79.566750 
	C1004.674133,69.782005 1019.795349,63.368958 1036.563721,60.906548 
	C1051.627441,58.694485 1066.369385,60.342258 1081.251953,64.265198 
	C1104.399780,71.903297 1122.472046,85.725220 1136.269531,105.765823 
	C1140.637207,115.647133 1145.616821,124.936485 1148.953979,134.782578 
	C1154.267456,150.459488 1153.807617,166.671539 1150.586670,182.964279 
	C1150.391724,183.501709 1150.421143,183.906845 1150.450439,184.311951 
	C1150.837280,184.047287 1151.224121,183.782623 1151.859863,183.298706 
	C1154.162842,180.071701 1156.344971,177.142593 1158.250000,174.043182 
	C1169.611816,155.557358 1180.860107,137.001480 1192.266235,118.543144 
	C1194.940430,114.215584 1198.076538,110.173477 1201.000000,106.000015 
M1094.029297,253.879547 
	C1055.471558,270.130463 1019.531677,265.238220 986.167053,240.263657 
	C983.106201,244.704468 980.319031,249.012207 977.262329,253.119492 
	C972.956848,258.904877 968.432800,264.527313 964.059631,270.263214 
	C963.598022,270.868622 963.297241,271.769531 963.302429,272.530731 
	C963.345215,278.847046 963.351379,285.168213 963.624756,291.476837 
	C963.825989,296.122101 966.036377,298.860443 971.188049,298.553741 
	C977.140442,298.199280 983.107117,297.974243 989.069336,297.931580 
	C993.605652,297.899078 996.744141,299.838837 997.168518,304.840912 
	C997.434509,307.975067 997.591003,311.139587 998.164856,314.221954 
	C999.249512,320.047760 1000.164795,325.964020 1001.970825,331.578827 
	C1003.539856,336.456970 1006.588196,337.402618 1011.420349,335.910217 
	C1017.430786,334.053833 1022.840759,331.518860 1027.207520,326.575165 
	C1032.040894,321.103302 1037.845825,316.502228 1042.866821,311.181458 
	C1060.564941,292.426758 1078.108643,273.526093 1096.148315,254.358658 
	C1096.202271,253.986237 1096.256226,253.613815 1096.310303,253.241394 
	C1095.790161,253.407745 1095.270142,253.574112 1094.029297,253.879547 
M992.823608,330.620453 
	C990.754944,325.251190 988.752136,319.855011 986.573120,314.530914 
	C986.002747,313.137390 984.885376,311.967743 984.019348,310.695251 
	C983.573303,310.948792 983.127258,311.202332 982.681152,311.455902 
	C982.424622,313.205963 982.168030,314.956024 982.059326,315.697266 
	C976.070923,317.949402 970.788696,320.138611 965.371277,321.915649 
	C960.083130,323.650269 958.520752,327.305817 958.961121,332.410614 
	C959.285522,336.170624 959.476013,339.942200 959.741150,343.935059 
	C957.536438,344.456146 955.345337,344.973999 952.731934,345.591675 
	C952.844543,356.717255 947.113525,365.504822 941.382263,374.323914 
	C939.628296,377.022949 938.210632,379.918732 941.354126,382.810547 
	C941.853516,383.270020 942.062256,384.346710 941.977722,385.089417 
	C941.515503,389.150635 943.121948,391.001984 947.317078,390.859772 
	C948.413574,390.822632 949.548401,391.912750 951.101929,392.708710 
	C968.214478,378.417664 985.309692,364.141083 1002.472839,349.807800 
	C999.184509,343.205261 996.203857,337.220428 992.823608,330.620453 
z"/>
<path fill="#0090F5" opacity="1.000000" stroke="none" 
	d="
M942.276733,267.080322 
	C939.320129,274.974976 939.701355,282.666718 941.645020,290.951355 
	C943.149719,297.364868 941.891541,304.461761 941.631653,311.246063 
	C941.200989,322.488190 940.577759,333.722839 940.063599,344.961914 
	C940.026978,345.762878 940.497986,346.667938 940.263123,347.366730 
	C937.337341,356.072113 934.396179,364.774078 931.283325,373.413635 
	C930.515686,375.544250 929.266541,377.549438 927.979675,379.435516 
	C924.665771,384.292297 925.246277,387.979492 930.186462,391.240814 
	C934.061218,393.798737 938.038208,396.201843 942.543762,399.034637 
	C936.384705,403.664062 930.379822,408.225128 924.325928,412.720184 
	C882.878662,443.494934 839.327393,470.951752 794.021851,495.682953 
	C718.413208,536.955750 638.964111,569.014648 556.932495,594.919128 
	C487.257782,616.921509 416.494141,634.672913 344.867432,649.012207 
	C323.755402,653.238831 302.567108,657.084473 281.421906,661.147034 
	C280.347900,661.353394 279.351074,661.961487 278.659149,662.691284 
	C186.446991,663.000000 93.893990,663.000000 1.000000,663.000000 
	C1.000000,636.980103 1.000000,610.958679 1.360762,584.493591 
	C8.073051,582.500366 14.489339,581.172974 20.759518,579.344543 
	C28.397640,577.117188 35.882477,574.369812 43.488129,572.024170 
	C55.665306,568.268494 67.914818,564.746277 80.079117,560.950378 
	C86.377441,558.984985 92.509125,556.486389 98.804810,554.511597 
	C106.527824,552.089172 114.402008,550.143250 122.103142,547.657776 
	C130.085556,545.081482 137.872849,541.897644 145.865234,539.356079 
	C156.806244,535.876953 167.849930,532.717834 178.870102,529.491638 
	C184.628067,527.805908 190.423279,526.245728 196.213715,524.673218 
	C201.782425,523.160950 207.404587,521.833313 212.933136,520.188843 
	C218.149673,518.637146 223.268555,516.759216 228.441864,515.059692 
	C235.775055,512.650574 243.096039,510.200653 250.463852,507.901550 
	C259.147095,505.192017 267.870361,502.609924 276.585724,500.004242 
	C279.600433,499.102936 282.704651,498.468048 285.661743,497.413483 
	C293.264984,494.701935 300.722260,491.555237 308.398651,489.081146 
	C317.564514,486.127014 327.060669,484.709686 336.155334,480.908417 
	C349.543640,475.312592 363.766205,471.694427 377.675720,467.370117 
	C388.080688,464.135284 398.572021,461.179138 408.988403,457.979889 
	C417.345795,455.413086 425.630463,452.610107 433.980713,450.019226 
	C440.933716,447.861786 447.966888,445.960632 454.906891,443.763916 
	C463.281097,441.113251 471.564545,438.175293 479.942596,435.537292 
	C488.423767,432.866821 496.965271,430.386414 505.493591,427.867676 
	C514.360413,425.248962 523.298584,422.857971 532.104858,420.051514 
	C543.180481,416.521820 554.088806,412.461182 565.191650,409.024963 
	C574.348022,406.191132 583.823364,404.355560 592.908081,401.329346 
	C610.633362,395.424866 627.972717,388.507874 646.323914,384.361633 
	C658.388672,381.635773 669.975403,376.767792 681.735229,372.739594 
	C684.229248,371.885284 686.901794,369.119751 688.879639,369.626282 
	C696.159546,371.490723 701.309753,366.008362 707.766724,364.975189 
	C716.344116,363.602783 724.499817,359.690063 732.894409,357.052612 
	C740.301270,354.725494 747.819824,352.754272 755.229858,350.436676 
	C763.498535,347.850616 771.680359,344.987701 779.936646,342.360748 
	C789.887146,339.194733 799.865356,336.114380 809.851807,333.063293 
	C819.841187,330.011383 829.922180,327.243835 839.841614,323.982422 
	C851.453247,320.164612 862.830933,315.615997 874.501221,312.001495 
	C885.280273,308.663055 896.414795,306.473755 907.199585,303.151337 
	C915.571716,300.572174 923.677490,297.105682 931.836975,293.870667 
	C934.845764,292.677734 936.510803,292.969849 937.086975,296.536011 
	C937.764587,300.729828 938.801758,304.865540 939.416748,307.769501 
	C939.416748,302.320770 939.581238,295.577118 939.357239,288.846375 
	C939.214783,284.565979 937.837463,280.239502 938.252441,276.056549 
	C938.559448,272.961884 940.862793,270.065216 942.276733,267.080322 
z"/>
<path fill="#008AEB" opacity="1.000000" stroke="none" 
	d="
M942.511108,266.869751 
	C940.862793,270.065216 938.559448,272.961884 938.252441,276.056549 
	C937.837463,280.239502 939.214783,284.565979 939.357239,288.846375 
	C939.581238,295.577118 939.416748,302.320770 939.416748,307.769501 
	C938.801758,304.865540 937.764587,300.729828 937.086975,296.536011 
	C936.510803,292.969849 934.845764,292.677734 931.836975,293.870667 
	C923.677490,297.105682 915.571716,300.572174 907.199585,303.151337 
	C896.414795,306.473755 885.280273,308.663055 874.501221,312.001495 
	C862.830933,315.615997 851.453247,320.164612 839.841614,323.982422 
	C829.922180,327.243835 819.841187,330.011383 809.851807,333.063293 
	C799.865356,336.114380 789.887146,339.194733 779.936646,342.360748 
	C771.680359,344.987701 763.498535,347.850616 755.229858,350.436676 
	C747.819824,352.754272 740.301270,354.725494 732.894409,357.052612 
	C724.499817,359.690063 716.344116,363.602783 707.766724,364.975189 
	C701.309753,366.008362 696.159546,371.490723 688.879639,369.626282 
	C686.901794,369.119751 684.229248,371.885284 681.735229,372.739594 
	C669.975403,376.767792 658.388672,381.635773 646.323914,384.361633 
	C627.972717,388.507874 610.633362,395.424866 592.908081,401.329346 
	C583.823364,404.355560 574.348022,406.191132 565.191650,409.024963 
	C554.088806,412.461182 543.180481,416.521820 532.104858,420.051514 
	C523.298584,422.857971 514.360413,425.248962 505.493591,427.867676 
	C496.965271,430.386414 488.423767,432.866821 479.942596,435.537292 
	C471.564545,438.175293 463.281097,441.113251 454.906891,443.763916 
	C447.966888,445.960632 440.933716,447.861786 433.980713,450.019226 
	C425.630463,452.610107 417.345795,455.413086 408.988403,457.979889 
	C398.572021,461.179138 388.080688,464.135284 377.675720,467.370117 
	C363.766205,471.694427 349.543640,475.312592 336.155334,480.908417 
	C327.060669,484.709686 317.564514,486.127014 308.398651,489.081146 
	C300.722260,491.555237 293.264984,494.701935 285.661743,497.413483 
	C282.704651,498.468048 279.600433,499.102936 276.585724,500.004242 
	C267.870361,502.609924 259.147095,505.192017 250.463852,507.901550 
	C243.096039,510.200653 235.775055,512.650574 228.441864,515.059692 
	C223.268555,516.759216 218.149673,518.637146 212.933136,520.188843 
	C207.404587,521.833313 201.782425,523.160950 196.213715,524.673218 
	C190.423279,526.245728 184.628067,527.805908 178.870102,529.491638 
	C167.849930,532.717834 156.806244,535.876953 145.865234,539.356079 
	C137.872849,541.897644 130.085556,545.081482 122.103142,547.657776 
	C114.402008,550.143250 106.527824,552.089172 98.804810,554.511597 
	C92.509125,556.486389 86.377441,558.984985 80.079117,560.950378 
	C67.914818,564.746277 55.665306,568.268494 43.488129,572.024170 
	C35.882477,574.369812 28.397640,577.117188 20.759518,579.344543 
	C14.489339,581.172974 8.073051,582.500366 1.360762,584.024902 
	C1.000000,558.312439 1.000000,532.624878 1.373834,506.384399 
	C5.598971,504.915253 9.546758,504.283875 13.280094,503.019348 
	C19.680677,500.851410 25.906601,498.171234 32.289577,495.946320 
	C34.923294,495.028259 38.294075,495.486969 40.431263,494.015076 
	C48.032467,488.780121 57.432884,489.957916 65.641777,485.861267 
	C76.000038,480.691986 87.968758,478.748627 99.244438,475.419403 
	C102.570152,474.437469 105.935471,473.576874 109.223877,472.483917 
	C117.435638,469.754517 125.531837,466.646454 133.824493,464.198822 
	C146.136475,460.564789 158.649933,457.608887 170.941849,453.912811 
	C181.020004,450.882446 190.909409,447.220398 200.864563,443.786377 
	C206.909348,441.701263 212.652786,439.171417 219.224304,438.185974 
	C225.870682,437.189270 232.092712,433.384949 238.514999,430.846893 
	C239.432922,430.484192 240.425842,430.300537 241.394119,430.077698 
	C248.339188,428.479492 255.381699,427.218964 262.213745,425.233368 
	C275.983154,421.231628 289.668915,416.932800 303.331787,412.576416 
	C315.444580,408.714325 327.475586,404.596100 339.550629,400.614960 
	C346.003021,398.487610 352.493073,396.472534 358.926971,394.291473 
	C363.892151,392.608307 368.717773,390.473602 373.744354,389.020111 
	C383.570160,386.178986 393.549652,383.866302 403.361908,380.982300 
	C416.687073,377.065857 429.915283,372.819611 443.184448,368.712769 
	C446.045685,367.827209 448.896118,366.906036 451.765350,366.047424 
	C463.098083,362.656219 474.437805,359.288330 485.770691,355.897614 
	C487.197540,355.470703 488.605957,354.978821 490.011597,354.484833 
	C502.182007,350.207550 514.284607,345.724518 526.536926,341.696594 
	C538.677063,337.705475 550.957397,334.138245 563.196350,330.451660 
	C568.424194,328.876953 573.746887,327.609741 578.950317,325.962372 
	C593.936279,321.217865 608.872192,316.315430 623.849731,311.544128 
	C634.264343,308.226440 644.754211,305.141205 655.137451,301.729919 
	C663.142456,299.100006 670.933289,295.788513 678.997375,293.374725 
	C694.482178,288.739685 710.411682,285.389496 725.531006,279.810638 
	C734.408936,276.534790 744.554626,276.853363 752.339478,270.537140 
	C752.799377,270.164001 753.617188,270.239075 754.264465,270.088593 
	C761.423706,268.424652 768.764343,267.301361 775.702332,264.976501 
	C789.688843,260.289734 803.361633,254.666779 817.349426,249.984161 
	C825.656433,247.203262 834.358826,245.626648 842.806030,243.235016 
	C850.445007,241.072220 857.965149,238.493408 865.563171,236.181564 
	C871.585815,234.349060 877.675781,232.735397 883.684631,230.860352 
	C894.100586,227.610077 904.455444,224.163406 914.877991,220.934875 
	C921.048706,219.023438 927.895142,218.415497 933.345398,215.306549 
	C938.640503,212.286148 943.892151,210.780899 949.673340,209.944717 
	C953.189819,209.436111 956.642639,208.488113 960.124023,207.737488 
	C964.715210,214.410721 969.458801,220.988327 973.760193,227.843399 
	C974.554688,229.109665 974.222717,231.977585 973.275513,233.281769 
	C969.807495,238.056610 965.859985,242.483200 961.925598,247.243607 
	C958.528137,243.274445 953.427124,243.094299 948.687744,245.376175 
	C946.831665,246.269821 946.265137,249.841797 944.868164,252.871902 
	C945.265442,254.926590 945.905884,256.303345 946.546326,257.680084 
	C946.546326,257.680084 946.453674,257.701813 946.349121,258.093628 
	C946.165649,259.664948 946.086731,260.844421 946.007751,262.023926 
	C944.920288,263.569000 943.832886,265.114105 942.511108,266.869751 
z"/>
<path fill="#0087E6" opacity="1.000000" stroke="none" 
	d="
M960.088684,207.410095 
	C956.642639,208.488113 953.189819,209.436111 949.673340,209.944717 
	C943.892151,210.780899 938.640503,212.286148 933.345398,215.306549 
	C927.895142,218.415497 921.048706,219.023438 914.877991,220.934875 
	C904.455444,224.163406 894.100586,227.610077 883.684631,230.860352 
	C877.675781,232.735397 871.585815,234.349060 865.563171,236.181564 
	C857.965149,238.493408 850.445007,241.072220 842.806030,243.235016 
	C834.358826,245.626648 825.656433,247.203262 817.349426,249.984161 
	C803.361633,254.666779 789.688843,260.289734 775.702332,264.976501 
	C768.764343,267.301361 761.423706,268.424652 754.264465,270.088593 
	C753.617188,270.239075 752.799377,270.164001 752.339478,270.537140 
	C744.554626,276.853363 734.408936,276.534790 725.531006,279.810638 
	C710.411682,285.389496 694.482178,288.739685 678.997375,293.374725 
	C670.933289,295.788513 663.142456,299.100006 655.137451,301.729919 
	C644.754211,305.141205 634.264343,308.226440 623.849731,311.544128 
	C608.872192,316.315430 593.936279,321.217865 578.950317,325.962372 
	C573.746887,327.609741 568.424194,328.876953 563.196350,330.451660 
	C550.957397,334.138245 538.677063,337.705475 526.536926,341.696594 
	C514.284607,345.724518 502.182007,350.207550 490.011597,354.484833 
	C488.605957,354.978821 487.197540,355.470703 485.770691,355.897614 
	C474.437805,359.288330 463.098083,362.656219 451.765350,366.047424 
	C448.896118,366.906036 446.045685,367.827209 443.184448,368.712769 
	C429.915283,372.819611 416.687073,377.065857 403.361908,380.982300 
	C393.549652,383.866302 383.570160,386.178986 373.744354,389.020111 
	C368.717773,390.473602 363.892151,392.608307 358.926971,394.291473 
	C352.493073,396.472534 346.003021,398.487610 339.550629,400.614960 
	C327.475586,404.596100 315.444580,408.714325 303.331787,412.576416 
	C289.668915,416.932800 275.983154,421.231628 262.213745,425.233368 
	C255.381699,427.218964 248.339188,428.479492 241.394119,430.077698 
	C240.425842,430.300537 239.432922,430.484192 238.514999,430.846893 
	C232.092712,433.384949 225.870682,437.189270 219.224304,438.185974 
	C212.652786,439.171417 206.909348,441.701263 200.864563,443.786377 
	C190.909409,447.220398 181.020004,450.882446 170.941849,453.912811 
	C158.649933,457.608887 146.136475,460.564789 133.824493,464.198822 
	C125.531837,466.646454 117.435638,469.754517 109.223877,472.483917 
	C105.935471,473.576874 102.570152,474.437469 99.244438,475.419403 
	C87.968758,478.748627 76.000038,480.691986 65.641777,485.861267 
	C57.432884,489.957916 48.032467,488.780121 40.431263,494.015076 
	C38.294075,495.486969 34.923294,495.028259 32.289577,495.946320 
	C25.906601,498.171234 19.680677,500.851410 13.280094,503.019348 
	C9.546758,504.283875 5.598971,504.915253 1.373834,505.915771 
	C1.000000,489.979095 1.000000,473.958221 1.431931,457.468536 
	C4.797143,456.522217 7.812885,456.330841 10.648327,455.513794 
	C19.350294,453.006348 27.831207,449.399017 36.683517,447.835052 
	C46.488560,446.102753 54.783993,440.583893 64.741997,438.948761 
	C75.819595,437.129822 86.365768,432.162292 97.201698,428.750977 
	C103.806908,426.671539 110.564529,425.077515 117.175674,423.015320 
	C123.139275,421.155090 128.947189,418.794830 134.913498,416.944519 
	C142.366180,414.633240 149.989059,412.855286 157.393555,410.408478 
	C164.859818,407.941284 172.042404,404.600739 179.536057,402.234253 
	C198.355469,396.291229 217.301331,390.749756 236.150925,384.900513 
	C242.301849,382.991821 248.259247,380.462006 254.402893,378.526459 
	C259.753510,376.840820 265.299774,375.778381 270.656647,374.110016 
	C280.636383,371.001862 290.514313,367.567780 300.483459,364.424316 
	C316.925110,359.239960 333.416107,354.212158 349.864014,349.047485 
	C355.686157,347.219299 361.395905,345.025085 367.241516,343.281464 
	C375.374878,340.855499 383.617828,338.798096 391.758484,336.395172 
	C400.506592,333.812927 409.194336,331.025391 417.901642,328.305847 
	C429.213837,324.772644 440.508881,321.184021 451.835052,317.696503 
	C454.681061,316.820160 457.692627,316.454285 460.498840,315.481018 
	C469.084747,312.503204 477.508057,309.023132 486.177948,306.328308 
	C500.244263,301.956207 514.483398,298.143707 528.597534,293.920624 
	C538.938049,290.826569 549.189087,287.434021 559.492065,284.212891 
	C564.231201,282.731201 568.991577,281.315460 573.755920,279.916321 
	C580.265991,278.004578 586.856995,276.341675 593.291443,274.205078 
	C604.159729,270.596161 614.932556,266.699463 625.745483,262.923798 
	C630.888000,261.128174 636.014465,259.284698 641.181396,257.562134 
	C643.069397,256.932709 645.050964,256.581360 646.993713,256.119324 
	C652.885193,254.718201 658.904541,253.713348 664.646118,251.851334 
	C678.427612,247.381943 692.037659,242.385147 705.805542,237.871765 
	C710.604248,236.298676 715.746765,235.792084 720.581848,234.308075 
	C726.407166,232.520142 732.000610,229.979080 737.822021,228.175751 
	C748.756897,224.788391 759.779358,221.682892 770.773682,218.488663 
	C775.353943,217.157959 780.014709,216.077728 784.533691,214.568695 
	C791.767639,212.153076 798.857178,209.299118 806.112976,206.956451 
	C813.697998,204.507462 821.442261,202.555542 829.055725,200.189499 
	C848.543823,194.133163 868.002625,187.982162 887.463867,181.839706 
	C898.362976,178.399719 909.436462,175.399490 920.074829,171.280273 
	C929.501099,167.630402 938.997559,165.240845 949.063904,164.998123 
	C949.167542,165.414001 949.271179,165.829880 949.067078,166.899155 
	C948.511108,168.674423 947.844849,169.893356 948.079346,170.903168 
	C950.360962,180.730408 952.732056,190.538574 955.270813,200.301987 
	C955.546692,201.362915 957.039856,202.107330 957.968384,202.998566 
	C958.663330,204.359940 959.358337,205.721329 960.088684,207.410095 
z"/>
<path fill="#007FD8" opacity="1.000000" stroke="none" 
	d="
M0.999999,364.000000 
	C1.000000,352.312439 1.000000,340.624878 1.391204,328.436523 
	C12.926520,324.704865 24.125570,321.649384 35.195492,318.181641 
	C42.617096,315.856750 49.772972,312.680023 57.202133,310.383942 
	C63.146458,308.546783 69.417534,307.773712 75.375687,305.972900 
	C85.045647,303.050201 94.546532,299.573273 104.176407,296.511536 
	C117.702209,292.211243 131.293243,288.116547 144.832520,283.858063 
	C154.466034,280.828094 164.031265,277.579193 173.682144,274.607117 
	C180.098648,272.631073 186.666122,271.141632 193.069778,269.128357 
	C202.198502,266.258301 211.200195,262.984070 220.330032,260.117859 
	C227.114975,257.987793 234.080948,256.430847 240.854279,254.267883 
	C255.699387,249.527298 270.450409,244.492599 285.285553,239.720108 
	C293.309418,237.138824 301.435242,234.876007 309.500458,232.421494 
	C317.122955,230.101700 324.719971,227.698212 332.339722,225.369202 
	C341.528473,222.560638 350.768127,219.912613 359.914764,216.974106 
	C370.526642,213.564850 381.025085,209.801865 391.642975,206.412231 
	C398.298401,204.287537 405.121033,202.690979 411.800781,200.636856 
	C421.643951,197.609924 431.401764,194.305725 441.241882,191.268448 
	C451.809937,188.006500 462.482300,185.076660 473.014679,181.706680 
	C483.565857,178.330688 493.949005,174.429398 504.500732,171.055267 
	C514.771545,167.770981 525.203125,164.991409 535.491455,161.759033 
	C550.199158,157.138153 564.807922,152.201965 579.522827,147.604965 
	C588.291016,144.865753 597.217590,142.634964 605.996033,139.926468 
	C608.791626,139.063934 611.211731,136.836899 614.022827,136.196838 
	C628.567322,132.885147 642.959534,129.177048 656.551697,122.849388 
	C657.578796,122.371246 658.799683,122.316994 659.923523,122.037811 
	C667.786072,120.084663 675.761658,118.492149 683.481079,116.080139 
	C695.174561,112.426422 706.618042,107.975983 718.298889,104.278145 
	C731.426208,100.122383 744.755432,96.605606 757.891174,92.475014 
	C768.672852,89.084702 779.247498,85.039261 790.010254,81.584557 
	C800.739868,78.140488 811.610840,75.139671 822.381165,71.818893 
	C836.621338,67.428268 850.787109,62.793335 865.054993,58.496311 
	C875.219299,55.435165 885.573853,52.998432 895.710083,49.853237 
	C911.064941,45.088741 926.299316,39.936615 941.593384,34.975361 
	C954.644104,30.741819 967.683228,26.470249 980.771179,22.354309 
	C992.666870,18.613308 1004.667725,15.202792 1016.533447,11.371587 
	C1024.250000,8.880087 1031.821777,5.934097 1039.418579,3.085515 
	C1040.401489,2.716915 1041.145386,1.710798 1042.000000,0.999990 
	C1080.687622,1.000000 1119.375122,1.000000 1158.429443,1.343975 
	C1157.316406,2.591653 1155.945190,3.852644 1154.338867,4.340786 
	C1144.226440,7.414109 1134.023560,10.191381 1123.927246,13.314679 
	C1116.316284,15.669141 1108.885864,18.615011 1101.253784,20.891161 
	C1093.835938,23.103405 1086.163086,24.477232 1078.782959,26.794788 
	C1067.580078,30.312744 1056.613892,34.589615 1045.391846,38.038483 
	C1038.160156,40.260975 1030.532471,41.193188 1023.299133,43.411125 
	C1016.261047,45.569248 1009.372986,48.346390 1002.645630,51.357872 
	C992.256165,56.008678 980.510864,56.284515 970.381592,61.946785 
	C966.836365,63.928566 962.078491,63.601246 958.065125,64.912399 
	C947.564087,68.343170 937.166992,72.092216 926.731323,75.722710 
	C922.856384,77.070793 919.058228,78.702057 915.104309,79.747704 
	C907.312256,81.808403 899.370361,83.316864 891.612671,85.490013 
	C883.974487,87.629707 876.486755,90.307022 868.934509,92.752876 
	C861.073853,95.298592 853.232849,97.906982 845.346191,100.369194 
	C842.336914,101.308685 838.561829,101.068542 836.287109,102.842369 
	C830.162354,107.618423 822.583130,107.637840 815.849731,110.265129 
	C802.781555,115.364189 788.276001,116.095619 775.922668,123.388748 
	C775.371094,123.714409 774.649597,123.752472 774.007019,123.923660 
	C767.439453,125.673401 760.704651,126.961700 754.339478,129.269592 
	C741.488342,133.929230 727.923950,136.156631 715.334473,141.937622 
	C708.210999,145.208649 699.780762,145.619400 691.955017,147.388794 
	C690.512329,147.714981 689.151611,148.394669 687.743225,148.882919 
	C677.894714,152.297104 668.093323,155.858780 658.171997,159.046768 
	C653.303040,160.611298 648.091736,161.122131 643.242126,162.732513 
	C631.947449,166.483109 620.872864,170.909378 609.534119,174.511124 
	C595.172974,179.072968 580.562073,182.849167 566.202759,187.416458 
	C554.856262,191.025452 543.788757,195.504822 532.478149,199.236465 
	C525.555847,201.520325 518.393616,203.069199 511.368286,205.051620 
	C507.712311,206.083252 504.138184,207.402634 500.492310,208.473541 
	C497.683899,209.298431 494.758118,209.753235 491.993958,210.694122 
	C482.224304,214.019577 473.243317,219.949860 462.305603,219.435059 
	C461.153198,219.380814 459.962036,220.511368 458.761597,221.029083 
	C457.139282,221.728714 455.533447,222.515045 453.845367,223.005173 
	C448.004669,224.701004 442.055573,226.054810 436.286102,227.958267 
	C423.910095,232.041351 411.665314,236.523193 399.281219,240.580612 
	C389.201843,243.882980 379.017639,246.872192 368.839966,249.864410 
	C364.568878,251.120102 360.105652,251.753586 355.883423,253.138443 
	C340.132294,258.304779 324.528412,263.933167 308.707520,268.869720 
	C295.622833,272.952484 282.140472,275.793762 269.142334,280.112305 
	C253.750336,285.226074 238.783493,291.425171 222.856949,295.128082 
	C208.559662,298.452179 194.659470,303.518646 180.641235,307.995453 
	C172.468262,310.605530 164.473221,313.778229 156.282486,316.326111 
	C139.669891,321.493805 122.981865,326.419434 106.318451,331.423248 
	C98.871536,333.659424 91.352173,335.670105 83.966171,338.089844 
	C71.074699,342.313171 58.316647,346.947968 45.396908,351.079590 
	C35.134083,354.361511 24.714291,357.152954 14.362127,360.155090 
	C9.910765,361.445984 5.454200,362.718903 0.999999,364.000000 
z"/>
<path fill="#007CD4" opacity="1.000000" stroke="none" 
	d="
M1041.531372,0.999990 
	C1041.145386,1.710798 1040.401489,2.716915 1039.418579,3.085515 
	C1031.821777,5.934097 1024.250000,8.880087 1016.533447,11.371587 
	C1004.667725,15.202792 992.666870,18.613308 980.771179,22.354309 
	C967.683228,26.470249 954.644104,30.741819 941.593384,34.975361 
	C926.299316,39.936615 911.064941,45.088741 895.710083,49.853237 
	C885.573853,52.998432 875.219299,55.435165 865.054993,58.496311 
	C850.787109,62.793335 836.621338,67.428268 822.381165,71.818893 
	C811.610840,75.139671 800.739868,78.140488 790.010254,81.584557 
	C779.247498,85.039261 768.672852,89.084702 757.891174,92.475014 
	C744.755432,96.605606 731.426208,100.122383 718.298889,104.278145 
	C706.618042,107.975983 695.174561,112.426422 683.481079,116.080139 
	C675.761658,118.492149 667.786072,120.084663 659.923523,122.037811 
	C658.799683,122.316994 657.578796,122.371246 656.551697,122.849388 
	C642.959534,129.177048 628.567322,132.885147 614.022827,136.196838 
	C611.211731,136.836899 608.791626,139.063934 605.996033,139.926468 
	C597.217590,142.634964 588.291016,144.865753 579.522827,147.604965 
	C564.807922,152.201965 550.199158,157.138153 535.491455,161.759033 
	C525.203125,164.991409 514.771545,167.770981 504.500732,171.055267 
	C493.949005,174.429398 483.565857,178.330688 473.014679,181.706680 
	C462.482300,185.076660 451.809937,188.006500 441.241882,191.268448 
	C431.401764,194.305725 421.643951,197.609924 411.800781,200.636856 
	C405.121033,202.690979 398.298401,204.287537 391.642975,206.412231 
	C381.025085,209.801865 370.526642,213.564850 359.914764,216.974106 
	C350.768127,219.912613 341.528473,222.560638 332.339722,225.369202 
	C324.719971,227.698212 317.122955,230.101700 309.500458,232.421494 
	C301.435242,234.876007 293.309418,237.138824 285.285553,239.720108 
	C270.450409,244.492599 255.699387,249.527298 240.854279,254.267883 
	C234.080948,256.430847 227.114975,257.987793 220.330032,260.117859 
	C211.200195,262.984070 202.198502,266.258301 193.069778,269.128357 
	C186.666122,271.141632 180.098648,272.631073 173.682144,274.607117 
	C164.031265,277.579193 154.466034,280.828094 144.832520,283.858063 
	C131.293243,288.116547 117.702209,292.211243 104.176407,296.511536 
	C94.546532,299.573273 85.045647,303.050201 75.375687,305.972900 
	C69.417534,307.773712 63.146458,308.546783 57.202133,310.383942 
	C49.772972,312.680023 42.617096,315.856750 35.195492,318.181641 
	C24.125570,321.649384 12.926520,324.704865 1.391204,327.967896 
	C1.000000,315.645782 1.000000,303.291534 1.396060,290.383789 
	C6.429415,288.665039 11.131996,287.707458 15.685331,286.275299 
	C20.093266,284.888916 24.264202,282.736938 28.685345,281.406921 
	C41.201771,277.641693 53.848488,274.305420 66.339439,270.460815 
	C79.213615,266.498291 91.926147,262.012604 104.782845,257.990601 
	C113.978943,255.113724 123.312523,252.679306 132.554474,249.945068 
	C140.710922,247.531998 148.830673,244.994003 156.953003,242.467316 
	C158.216202,242.074356 159.381393,241.374573 160.634811,240.940521 
	C166.254028,238.994644 171.820602,236.853210 177.533966,235.233002 
	C185.954865,232.845016 194.585632,231.168381 202.942490,228.590576 
	C214.015198,225.175018 224.865234,221.044586 235.891556,217.469971 
	C252.767532,211.998993 269.698212,206.695190 286.631897,201.404297 
	C303.224792,196.219864 319.867584,191.194870 336.452454,185.985275 
	C342.311035,184.145004 347.984650,181.690582 353.882965,180.008224 
	C362.294525,177.609009 370.938904,176.001678 379.298035,173.447983 
	C394.030090,168.947372 408.602051,163.925476 423.278290,159.238449 
	C435.645477,155.288834 448.125214,151.684509 460.444397,147.593842 
	C471.434357,143.944550 482.269226,139.828781 493.184448,135.952469 
	C494.103943,135.625931 495.110199,135.532211 496.082550,135.368408 
	C499.290649,134.827957 502.565948,134.547958 505.696991,133.720078 
	C510.773102,132.377914 515.773010,130.735397 520.770874,129.114136 
	C524.057373,128.048019 527.257751,126.717201 530.542847,125.646217 
	C535.514954,124.025223 540.523682,122.515984 545.523743,120.981583 
	C548.203796,120.159134 550.917664,119.442940 553.580383,118.569145 
	C556.067322,117.752998 558.481506,116.713974 560.971497,115.908386 
	C570.559448,112.806396 580.171692,109.779648 589.761536,106.683563 
	C596.545532,104.493362 603.270508,102.112801 610.092041,100.049408 
	C615.456543,98.426765 621.015442,97.423813 626.332764,95.673813 
	C635.145020,92.773567 643.764099,89.281891 652.593872,86.441261 
	C659.667053,84.165787 666.990906,82.677658 674.094055,80.485428 
	C680.251465,78.585098 686.175842,75.922478 692.345825,74.072189 
	C701.043701,71.463844 709.922180,69.459244 718.627502,66.873749 
	C723.699280,65.367439 728.506226,62.977947 733.566589,61.422871 
	C753.695374,55.237251 773.876831,49.223213 794.039001,43.146400 
	C796.739136,42.332581 799.450745,41.555359 802.139648,40.706043 
	C812.547607,37.418587 822.973328,34.184258 833.343750,30.781809 
	C840.725708,28.359846 848.028381,25.696384 855.368896,23.147764 
	C864.548584,19.960533 874.784180,20.060848 883.121460,14.193648 
	C884.021545,13.560252 885.333313,13.514579 886.451782,13.188344 
	C896.976807,10.118414 907.520264,7.108190 917.999939,3.890622 
	C919.184204,3.527036 920.008667,1.991873 921.000000,1.000001 
	C961.020935,1.000000 1001.041809,1.000000 1041.531372,0.999990 
z"/>
<path fill="#0075C7" opacity="1.000000" stroke="none" 
	d="
M457.000000,0.999993 
	C527.020874,1.000000 597.041809,1.000000 667.389648,1.319103 
	C665.822205,2.578216 664.015869,3.813419 662.018738,4.408677 
	C651.712463,7.480544 641.271057,10.121356 631.041870,13.423688 
	C619.239746,17.233831 607.484619,21.257528 595.939270,25.776661 
	C583.835815,30.514271 570.310791,30.707672 558.929871,37.626598 
	C558.404114,37.946255 557.618042,37.803947 556.982605,37.981899 
	C543.727417,41.694035 530.403259,45.182571 517.248169,49.221806 
	C506.858429,52.411949 496.750793,56.514061 486.385345,59.792019 
	C473.900452,63.740223 461.218109,67.063416 448.727356,70.994255 
	C436.808807,74.745018 425.045227,78.985664 413.170197,82.878784 
	C410.514709,83.749359 407.619507,83.871712 404.935608,84.675491 
	C391.838837,88.597710 378.729828,92.489441 365.714264,96.669395 
	C351.659485,101.183098 337.736877,106.108025 323.686707,110.636719 
	C318.497864,112.309212 313.024872,113.097321 307.829803,114.753906 
	C295.225861,118.773033 282.755066,123.210579 270.144226,127.206818 
	C257.349091,131.261444 244.463440,135.033524 231.591888,138.842987 
	C223.885056,141.123917 216.121231,143.211655 208.401505,145.449982 
	C206.650864,145.957581 204.996948,146.789444 203.264206,147.369629 
	C194.498642,150.304886 185.714188,153.183731 176.951675,156.127991 
	C171.655426,157.907562 166.382507,159.757111 161.107498,161.599243 
	C156.019882,163.375961 151.006302,165.396057 145.847717,166.931366 
	C136.353775,169.756958 126.751801,172.218124 117.244186,174.999802 
	C110.799622,176.885330 104.486221,179.224716 98.026634,181.051620 
	C92.773720,182.537247 86.801582,182.492752 82.195244,185.028503 
	C74.063499,189.504944 65.440948,191.316757 56.599106,193.210083 
	C50.486790,194.518906 44.648304,197.139404 38.718925,199.261688 
	C30.667061,202.143692 22.679686,205.209366 14.596939,208.000168 
	C10.136084,209.540405 5.536849,210.679855 0.999999,212.000000 
	C1.000000,189.645767 1.000000,167.291550 1.404850,144.465988 
	C6.402131,142.618729 10.985018,141.209930 15.588796,139.873062 
	C28.878046,136.014069 42.212978,132.307144 55.456417,128.297546 
	C63.710011,125.798683 71.785149,122.714226 80.021912,120.155006 
	C90.318161,116.955894 100.725540,114.115585 111.033714,110.953392 
	C120.008598,108.200211 128.879837,105.109192 137.854355,102.354797 
	C155.269455,97.009911 172.733658,91.825287 190.160889,86.519691 
	C204.125656,82.268219 218.064926,77.933113 232.017441,73.641335 
	C236.595993,72.232979 241.235138,70.998978 245.748611,69.407372 
	C251.453079,67.395767 256.972107,64.831589 262.729065,63.003071 
	C268.408600,61.199146 274.371307,60.289276 280.056274,58.499573 
	C290.003021,55.368217 299.788910,51.727772 309.724792,48.559616 
	C317.324738,46.136284 325.106689,44.284706 332.711029,41.873951 
	C347.215149,37.275814 361.626556,32.385651 376.121338,27.757336 
	C388.610748,23.769354 401.013000,19.362583 413.727905,16.266785 
	C427.028381,13.028415 439.160919,6.029001 452.988434,4.575984 
	C454.434906,4.423986 455.667938,2.240782 457.000000,0.999993 
z"/>
<path fill="#0085E1" opacity="1.000000" stroke="none" 
	d="
M949.115723,164.554672 
	C938.997559,165.240845 929.501099,167.630402 920.074829,171.280273 
	C909.436462,175.399490 898.362976,178.399719 887.463867,181.839706 
	C868.002625,187.982162 848.543823,194.133163 829.055725,200.189499 
	C821.442261,202.555542 813.697998,204.507462 806.112976,206.956451 
	C798.857178,209.299118 791.767639,212.153076 784.533691,214.568695 
	C780.014709,216.077728 775.353943,217.157959 770.773682,218.488663 
	C759.779358,221.682892 748.756897,224.788391 737.822021,228.175751 
	C732.000610,229.979080 726.407166,232.520142 720.581848,234.308075 
	C715.746765,235.792084 710.604248,236.298676 705.805542,237.871765 
	C692.037659,242.385147 678.427612,247.381943 664.646118,251.851334 
	C658.904541,253.713348 652.885193,254.718201 646.993713,256.119324 
	C645.050964,256.581360 643.069397,256.932709 641.181396,257.562134 
	C636.014465,259.284698 630.888000,261.128174 625.745483,262.923798 
	C614.932556,266.699463 604.159729,270.596161 593.291443,274.205078 
	C586.856995,276.341675 580.265991,278.004578 573.755920,279.916321 
	C568.991577,281.315460 564.231201,282.731201 559.492065,284.212891 
	C549.189087,287.434021 538.938049,290.826569 528.597534,293.920624 
	C514.483398,298.143707 500.244263,301.956207 486.177948,306.328308 
	C477.508057,309.023132 469.084747,312.503204 460.498840,315.481018 
	C457.692627,316.454285 454.681061,316.820160 451.835052,317.696503 
	C440.508881,321.184021 429.213837,324.772644 417.901642,328.305847 
	C409.194336,331.025391 400.506592,333.812927 391.758484,336.395172 
	C383.617828,338.798096 375.374878,340.855499 367.241516,343.281464 
	C361.395905,345.025085 355.686157,347.219299 349.864014,349.047485 
	C333.416107,354.212158 316.925110,359.239960 300.483459,364.424316 
	C290.514313,367.567780 280.636383,371.001862 270.656647,374.110016 
	C265.299774,375.778381 259.753510,376.840820 254.402893,378.526459 
	C248.259247,380.462006 242.301849,382.991821 236.150925,384.900513 
	C217.301331,390.749756 198.355469,396.291229 179.536057,402.234253 
	C172.042404,404.600739 164.859818,407.941284 157.393555,410.408478 
	C149.989059,412.855286 142.366180,414.633240 134.913498,416.944519 
	C128.947189,418.794830 123.139275,421.155090 117.175674,423.015320 
	C110.564529,425.077515 103.806908,426.671539 97.201698,428.750977 
	C86.365768,432.162292 75.819595,437.129822 64.741997,438.948761 
	C54.783993,440.583893 46.488560,446.102753 36.683517,447.835052 
	C27.831207,449.399017 19.350294,453.006348 10.648327,455.513794 
	C7.812885,456.330841 4.797143,456.522217 1.431931,456.999878 
	C1.000000,445.312439 1.000000,433.624878 1.432117,421.468506 
	C4.310500,420.638306 6.838389,420.555603 9.188963,419.867340 
	C19.624666,416.811737 29.834452,412.603210 40.464043,410.702728 
	C50.294342,408.945129 58.377693,401.596344 68.858032,402.658173 
	C69.152924,402.688049 69.473343,402.427795 69.786903,402.317078 
	C77.881577,399.458649 85.898529,396.350433 94.088989,393.799316 
	C109.634727,388.957275 125.303558,384.511414 140.867310,379.725464 
	C144.800491,378.515961 148.503082,376.573700 152.361649,375.099030 
	C155.415527,373.931946 158.550247,372.977539 161.640640,371.904449 
	C163.347321,371.311829 165.000397,370.530945 166.740509,370.074860 
	C172.174194,368.650696 177.686707,367.508331 183.075211,365.936371 
	C187.836594,364.547333 192.417404,362.540253 197.177322,361.145142 
	C203.936905,359.163910 210.862961,357.735107 217.583206,355.638519 
	C230.545425,351.594635 243.377090,347.132965 256.332031,343.064758 
	C266.452301,339.886688 276.696014,337.103882 286.849243,334.027832 
	C294.460052,331.721985 302.003815,329.195587 309.598572,326.835480 
	C312.762268,325.852356 316.018341,325.161346 319.168121,324.139404 
	C332.402222,319.845581 345.595032,315.423950 358.841858,311.170380 
	C362.438141,310.015594 366.267609,309.558807 369.819946,308.301270 
	C376.653198,305.882324 383.258362,302.787476 390.152313,300.579224 
	C400.255188,297.343170 410.551819,294.717285 420.720276,291.678741 
	C426.233826,290.031219 431.605438,287.905945 437.125427,286.283051 
	C446.204803,283.613617 455.445404,281.466858 464.452759,278.583435 
	C484.199310,272.262207 503.787079,265.443817 523.547485,259.167755 
	C536.118530,255.175079 548.937439,251.967026 561.539917,248.066849 
	C568.817932,245.814453 575.784302,242.547470 583.073853,240.341324 
	C593.843811,237.081802 604.873657,234.673340 615.617920,231.338730 
	C633.476562,225.796082 651.140320,219.626053 668.994263,214.067612 
	C680.848755,210.376968 692.891907,207.292160 704.849731,203.933258 
	C705.488586,203.753815 706.126404,203.566269 706.753662,203.350601 
	C723.357483,197.642273 739.883911,191.694489 756.588623,186.298874 
	C768.137390,182.568665 780.032349,179.912476 791.589600,176.205795 
	C803.896057,172.258835 815.914734,167.419662 828.196655,163.389450 
	C836.768555,160.576614 845.591370,158.536041 854.266846,156.028732 
	C862.676208,153.598328 871.058960,151.071426 879.421021,148.482605 
	C897.471069,142.894501 915.508301,137.264999 933.531799,131.592010 
	C937.472717,130.351593 941.270752,128.616852 945.255554,127.570755 
	C947.710022,126.926422 950.393799,127.155571 952.949280,127.383202 
	C951.769836,132.247742 950.153992,136.664001 949.586609,141.211075 
	C948.974304,146.118698 949.342590,151.148682 949.283203,156.125290 
	C949.244629,158.787262 949.206055,161.449249 949.115723,164.554672 
z"/>
<path fill="#0070BF" opacity="1.000000" stroke="none" 
	d="
M456.531342,0.999993 
	C455.667938,2.240782 454.434906,4.423986 452.988434,4.575984 
	C439.160919,6.029001 427.028381,13.028415 413.727905,16.266785 
	C401.013000,19.362583 388.610748,23.769354 376.121338,27.757336 
	C361.626556,32.385651 347.215149,37.275814 332.711029,41.873951 
	C325.106689,44.284706 317.324738,46.136284 309.724792,48.559616 
	C299.788910,51.727772 290.003021,55.368217 280.056274,58.499573 
	C274.371307,60.289276 268.408600,61.199146 262.729065,63.003071 
	C256.972107,64.831589 251.453079,67.395767 245.748611,69.407372 
	C241.235138,70.998978 236.595993,72.232979 232.017441,73.641335 
	C218.064926,77.933113 204.125656,82.268219 190.160889,86.519691 
	C172.733658,91.825287 155.269455,97.009911 137.854355,102.354797 
	C128.879837,105.109192 120.008598,108.200211 111.033714,110.953392 
	C100.725540,114.115585 90.318161,116.955894 80.021912,120.155006 
	C71.785149,122.714226 63.710011,125.798683 55.456417,128.297546 
	C42.212978,132.307144 28.878046,136.014069 15.588796,139.873062 
	C10.985018,141.209930 6.402131,142.618729 1.404850,143.997330 
	C1.000000,96.368156 1.000000,48.736313 1.000000,1.000000 
	C152.687546,1.000000 304.375122,1.000000 456.531342,0.999993 
z"/>
<path fill="#007ACF" opacity="1.000000" stroke="none" 
	d="
M920.531372,1.000001 
	C920.008667,1.991873 919.184204,3.527036 917.999939,3.890622 
	C907.520264,7.108190 896.976807,10.118414 886.451782,13.188344 
	C885.333313,13.514579 884.021545,13.560252 883.121460,14.193648 
	C874.784180,20.060848 864.548584,19.960533 855.368896,23.147764 
	C848.028381,25.696384 840.725708,28.359846 833.343750,30.781809 
	C822.973328,34.184258 812.547607,37.418587 802.139648,40.706043 
	C799.450745,41.555359 796.739136,42.332581 794.039001,43.146400 
	C773.876831,49.223213 753.695374,55.237251 733.566589,61.422871 
	C728.506226,62.977947 723.699280,65.367439 718.627502,66.873749 
	C709.922180,69.459244 701.043701,71.463844 692.345825,74.072189 
	C686.175842,75.922478 680.251465,78.585098 674.094055,80.485428 
	C666.990906,82.677658 659.667053,84.165787 652.593872,86.441261 
	C643.764099,89.281891 635.145020,92.773567 626.332764,95.673813 
	C621.015442,97.423813 615.456543,98.426765 610.092041,100.049408 
	C603.270508,102.112801 596.545532,104.493362 589.761536,106.683563 
	C580.171692,109.779648 570.559448,112.806396 560.971497,115.908386 
	C558.481506,116.713974 556.067322,117.752998 553.580383,118.569145 
	C550.917664,119.442940 548.203796,120.159134 545.523743,120.981583 
	C540.523682,122.515984 535.514954,124.025223 530.542847,125.646217 
	C527.257751,126.717201 524.057373,128.048019 520.770874,129.114136 
	C515.773010,130.735397 510.773102,132.377914 505.696991,133.720078 
	C502.565948,134.547958 499.290649,134.827957 496.082550,135.368408 
	C495.110199,135.532211 494.103943,135.625931 493.184448,135.952469 
	C482.269226,139.828781 471.434357,143.944550 460.444397,147.593842 
	C448.125214,151.684509 435.645477,155.288834 423.278290,159.238449 
	C408.602051,163.925476 394.030090,168.947372 379.298035,173.447983 
	C370.938904,176.001678 362.294525,177.609009 353.882965,180.008224 
	C347.984650,181.690582 342.311035,184.145004 336.452454,185.985275 
	C319.867584,191.194870 303.224792,196.219864 286.631897,201.404297 
	C269.698212,206.695190 252.767532,211.998993 235.891556,217.469971 
	C224.865234,221.044586 214.015198,225.175018 202.942490,228.590576 
	C194.585632,231.168381 185.954865,232.845016 177.533966,235.233002 
	C171.820602,236.853210 166.254028,238.994644 160.634811,240.940521 
	C159.381393,241.374573 158.216202,242.074356 156.953003,242.467316 
	C148.830673,244.994003 140.710922,247.531998 132.554474,249.945068 
	C123.312523,252.679306 113.978943,255.113724 104.782845,257.990601 
	C91.926147,262.012604 79.213615,266.498291 66.339439,270.460815 
	C53.848488,274.305420 41.201771,277.641693 28.685345,281.406921 
	C24.264202,282.736938 20.093266,284.888916 15.685331,286.275299 
	C11.131996,287.707458 6.429415,288.665039 1.396060,289.915100 
	C1.000000,277.979095 1.000000,265.958221 1.392938,253.459198 
	C3.529941,252.484482 5.316206,252.101135 7.010100,251.469925 
	C11.956772,249.626587 16.783087,247.420670 21.806398,245.830002 
	C37.153435,240.970322 52.575687,236.348572 67.958939,231.602676 
	C78.548347,228.335724 89.118088,225.005127 99.703041,221.723679 
	C108.986122,218.845810 118.293999,216.046982 127.561478,213.120026 
	C135.859665,210.499222 144.080215,207.628555 152.402161,205.088043 
	C164.978745,201.248703 177.653748,197.729446 190.209930,193.826462 
	C198.887329,191.129196 207.435699,188.016571 216.039856,185.084076 
	C218.864395,184.121414 221.669983,183.101471 224.506744,182.176727 
	C237.090836,178.074524 249.678329,173.982498 262.279144,169.932037 
	C263.686737,169.479599 265.211365,169.401932 266.639374,169.000000 
	C270.724823,167.850067 274.803864,166.671814 278.854858,165.406845 
	C281.196411,164.675644 283.429962,163.565918 285.796967,162.955200 
	C293.497955,160.968246 301.370789,159.549957 308.933228,157.144943 
	C321.531067,153.138565 333.876312,148.343353 346.443268,144.233093 
	C364.188934,138.428970 382.023163,132.892838 399.856049,127.359833 
	C404.909332,125.791962 410.138245,124.793114 415.200500,123.250687 
	C422.728729,120.956902 430.156921,118.336571 437.671143,115.994606 
	C445.247589,113.633224 452.916779,111.565712 460.472534,109.142418 
	C468.476349,106.575439 476.331085,103.533997 484.366241,101.076782 
	C494.054474,98.114052 503.897217,95.659592 513.608704,92.768829 
	C519.480103,91.021118 525.183228,88.711662 531.043823,86.922935 
	C541.142212,83.840782 551.376770,81.191948 561.421631,77.950447 
	C573.923645,73.916016 586.281311,69.435883 598.732117,65.239342 
	C599.946106,64.830154 601.390137,65.159676 602.701172,64.967621 
	C604.324158,64.729881 605.969727,64.455246 607.518982,63.937374 
	C617.407349,60.631821 627.250122,57.188553 637.150879,53.920956 
	C646.397583,50.869198 655.706299,48.005520 664.971558,45.009125 
	C671.922729,42.761116 678.830383,40.377979 685.789368,38.155003 
	C696.363281,34.777256 706.971375,31.506636 717.548157,28.137691 
	C719.268799,27.589609 720.849243,26.566103 722.585876,26.109680 
	C730.251709,24.094889 738.018005,22.437214 745.623413,20.222878 
	C759.165466,16.280079 772.687195,12.238166 786.070557,7.795039 
	C790.930054,6.181726 795.369080,3.301929 800.000000,0.999998 
	C840.020874,1.000000 880.041809,1.000000 920.531372,1.000001 
z"/>
<path fill="#0078CC" opacity="1.000000" stroke="none" 
	d="
M799.531372,0.999998 
	C795.369080,3.301929 790.930054,6.181726 786.070557,7.795039 
	C772.687195,12.238166 759.165466,16.280079 745.623413,20.222878 
	C738.018005,22.437214 730.251709,24.094889 722.585876,26.109680 
	C720.849243,26.566103 719.268799,27.589609 717.548157,28.137691 
	C706.971375,31.506636 696.363281,34.777256 685.789368,38.155003 
	C678.830383,40.377979 671.922729,42.761116 664.971558,45.009125 
	C655.706299,48.005520 646.397583,50.869198 637.150879,53.920956 
	C627.250122,57.188553 617.407349,60.631821 607.518982,63.937374 
	C605.969727,64.455246 604.324158,64.729881 602.701172,64.967621 
	C601.390137,65.159676 599.946106,64.830154 598.732117,65.239342 
	C586.281311,69.435883 573.923645,73.916016 561.421631,77.950447 
	C551.376770,81.191948 541.142212,83.840782 531.043823,86.922935 
	C525.183228,88.711662 519.480103,91.021118 513.608704,92.768829 
	C503.897217,95.659592 494.054474,98.114052 484.366241,101.076782 
	C476.331085,103.533997 468.476349,106.575439 460.472534,109.142418 
	C452.916779,111.565712 445.247589,113.633224 437.671143,115.994606 
	C430.156921,118.336571 422.728729,120.956902 415.200500,123.250687 
	C410.138245,124.793114 404.909332,125.791962 399.856049,127.359833 
	C382.023163,132.892838 364.188934,138.428970 346.443268,144.233093 
	C333.876312,148.343353 321.531067,153.138565 308.933228,157.144943 
	C301.370789,159.549957 293.497955,160.968246 285.796967,162.955200 
	C283.429962,163.565918 281.196411,164.675644 278.854858,165.406845 
	C274.803864,166.671814 270.724823,167.850067 266.639374,169.000000 
	C265.211365,169.401932 263.686737,169.479599 262.279144,169.932037 
	C249.678329,173.982498 237.090836,178.074524 224.506744,182.176727 
	C221.669983,183.101471 218.864395,184.121414 216.039856,185.084076 
	C207.435699,188.016571 198.887329,191.129196 190.209930,193.826462 
	C177.653748,197.729446 164.978745,201.248703 152.402161,205.088043 
	C144.080215,207.628555 135.859665,210.499222 127.561478,213.120026 
	C118.293999,216.046982 108.986122,218.845810 99.703041,221.723679 
	C89.118088,225.005127 78.548347,228.335724 67.958939,231.602676 
	C52.575687,236.348572 37.153435,240.970322 21.806398,245.830002 
	C16.783087,247.420670 11.956772,249.626587 7.010100,251.469925 
	C5.316206,252.101135 3.529941,252.484482 1.392938,252.990540 
	C1.000000,239.645767 1.000000,226.291550 0.999999,212.468658 
	C5.536849,210.679855 10.136084,209.540405 14.596939,208.000168 
	C22.679686,205.209366 30.667061,202.143692 38.718925,199.261688 
	C44.648304,197.139404 50.486790,194.518906 56.599106,193.210083 
	C65.440948,191.316757 74.063499,189.504944 82.195244,185.028503 
	C86.801582,182.492752 92.773720,182.537247 98.026634,181.051620 
	C104.486221,179.224716 110.799622,176.885330 117.244186,174.999802 
	C126.751801,172.218124 136.353775,169.756958 145.847717,166.931366 
	C151.006302,165.396057 156.019882,163.375961 161.107498,161.599243 
	C166.382507,159.757111 171.655426,157.907562 176.951675,156.127991 
	C185.714188,153.183731 194.498642,150.304886 203.264206,147.369629 
	C204.996948,146.789444 206.650864,145.957581 208.401505,145.449982 
	C216.121231,143.211655 223.885056,141.123917 231.591888,138.842987 
	C244.463440,135.033524 257.349091,131.261444 270.144226,127.206818 
	C282.755066,123.210579 295.225861,118.773033 307.829803,114.753906 
	C313.024872,113.097321 318.497864,112.309212 323.686707,110.636719 
	C337.736877,106.108025 351.659485,101.183098 365.714264,96.669395 
	C378.729828,92.489441 391.838837,88.597710 404.935608,84.675491 
	C407.619507,83.871712 410.514709,83.749359 413.170197,82.878784 
	C425.045227,78.985664 436.808807,74.745018 448.727356,70.994255 
	C461.218109,67.063416 473.900452,63.740223 486.385345,59.792019 
	C496.750793,56.514061 506.858429,52.411949 517.248169,49.221806 
	C530.403259,45.182571 543.727417,41.694035 556.982605,37.981899 
	C557.618042,37.803947 558.404114,37.946255 558.929871,37.626598 
	C570.310791,30.707672 583.835815,30.514271 595.939270,25.776661 
	C607.484619,21.257528 619.239746,17.233831 631.041870,13.423688 
	C641.271057,10.121356 651.712463,7.480544 662.018738,4.408677 
	C664.015869,3.813419 665.822205,2.578216 667.858276,1.319103 
	C711.687561,1.000000 755.375122,1.000000 799.531372,0.999998 
z"/>
<path fill="#0081DB" opacity="1.000000" stroke="none" 
	d="
M0.999999,364.468628 
	C5.454200,362.718903 9.910765,361.445984 14.362127,360.155090 
	C24.714291,357.152954 35.134083,354.361511 45.396908,351.079590 
	C58.316647,346.947968 71.074699,342.313171 83.966171,338.089844 
	C91.352173,335.670105 98.871536,333.659424 106.318451,331.423248 
	C122.981865,326.419434 139.669891,321.493805 156.282486,316.326111 
	C164.473221,313.778229 172.468262,310.605530 180.641235,307.995453 
	C194.659470,303.518646 208.559662,298.452179 222.856949,295.128082 
	C238.783493,291.425171 253.750336,285.226074 269.142334,280.112305 
	C282.140472,275.793762 295.622833,272.952484 308.707520,268.869720 
	C324.528412,263.933167 340.132294,258.304779 355.883423,253.138443 
	C360.105652,251.753586 364.568878,251.120102 368.839966,249.864410 
	C379.017639,246.872192 389.201843,243.882980 399.281219,240.580612 
	C411.665314,236.523193 423.910095,232.041351 436.286102,227.958267 
	C442.055573,226.054810 448.004669,224.701004 453.845367,223.005173 
	C455.533447,222.515045 457.139282,221.728714 458.761597,221.029083 
	C459.962036,220.511368 461.153198,219.380814 462.305603,219.435059 
	C473.243317,219.949860 482.224304,214.019577 491.993958,210.694122 
	C494.758118,209.753235 497.683899,209.298431 500.492310,208.473541 
	C504.138184,207.402634 507.712311,206.083252 511.368286,205.051620 
	C518.393616,203.069199 525.555847,201.520325 532.478149,199.236465 
	C543.788757,195.504822 554.856262,191.025452 566.202759,187.416458 
	C580.562073,182.849167 595.172974,179.072968 609.534119,174.511124 
	C620.872864,170.909378 631.947449,166.483109 643.242126,162.732513 
	C648.091736,161.122131 653.303040,160.611298 658.171997,159.046768 
	C668.093323,155.858780 677.894714,152.297104 687.743225,148.882919 
	C689.151611,148.394669 690.512329,147.714981 691.955017,147.388794 
	C699.780762,145.619400 708.210999,145.208649 715.334473,141.937622 
	C727.923950,136.156631 741.488342,133.929230 754.339478,129.269592 
	C760.704651,126.961700 767.439453,125.673401 774.007019,123.923660 
	C774.649597,123.752472 775.371094,123.714409 775.922668,123.388748 
	C788.276001,116.095619 802.781555,115.364189 815.849731,110.265129 
	C822.583130,107.637840 830.162354,107.618423 836.287109,102.842369 
	C838.561829,101.068542 842.336914,101.308685 845.346191,100.369194 
	C853.232849,97.906982 861.073853,95.298592 868.934509,92.752876 
	C876.486755,90.307022 883.974487,87.629707 891.612671,85.490013 
	C899.370361,83.316864 907.312256,81.808403 915.104309,79.747704 
	C919.058228,78.702057 922.856384,77.070793 926.731323,75.722710 
	C937.166992,72.092216 947.564087,68.343170 958.065125,64.912399 
	C962.078491,63.601246 966.836365,63.928566 970.381592,61.946785 
	C980.510864,56.284515 992.256165,56.008678 1002.645630,51.357872 
	C1009.372986,48.346390 1016.261047,45.569248 1023.299133,43.411125 
	C1030.532471,41.193188 1038.160156,40.260975 1045.391846,38.038483 
	C1056.613892,34.589615 1067.580078,30.312744 1078.782959,26.794788 
	C1086.163086,24.477232 1093.835938,23.103405 1101.253784,20.891161 
	C1108.885864,18.615011 1116.316284,15.669141 1123.927246,13.314679 
	C1134.023560,10.191381 1144.226440,7.414109 1154.338867,4.340786 
	C1155.945190,3.852644 1157.316406,2.591653 1158.898193,1.343975 
	C1172.909302,1.000000 1186.818604,1.000000 1201.000000,1.000000 
	C1201.000000,9.352259 1201.000000,17.707462 1200.624756,26.560745 
	C1198.546631,27.697296 1196.848877,28.349691 1195.139893,28.971771 
	C1188.793823,31.281641 1182.531128,33.868881 1176.076782,35.821903 
	C1164.675415,39.271866 1153.103760,42.159714 1141.705322,45.618969 
	C1134.259888,47.878597 1127.071289,50.984016 1119.626831,53.247673 
	C1112.024048,55.559460 1104.246094,57.294136 1096.551758,59.307102 
	C1094.543091,59.832573 1092.559570,60.453552 1090.564453,61.030655 
	C1090.193848,61.641521 1089.823242,62.252388 1089.452637,62.863258 
	C1091.423462,64.144226 1093.394165,65.425194 1095.364990,66.706161 
	C1093.154419,66.943855 1091.624756,66.002556 1089.964966,65.605690 
	C1087.016602,64.900703 1083.989502,64.525795 1080.995239,64.012802 
	C1066.369385,60.342258 1051.627441,58.694485 1036.563721,60.906548 
	C1019.795349,63.368958 1004.674133,69.782005 990.955811,79.566750 
	C986.385742,82.826424 982.146973,86.550781 977.424438,89.794052 
	C978.527161,87.062790 979.962280,84.600182 981.397339,82.137581 
	C978.514893,82.470436 976.162537,83.816925 973.673157,84.824883 
	C971.415222,85.739105 968.955139,87.014015 966.677185,86.848640 
	C961.032532,86.438835 956.301086,88.486771 951.546509,90.964607 
	C949.495728,92.033340 947.346741,93.372353 945.139099,93.603989 
	C934.178711,94.754028 924.941895,102.545067 913.498108,101.705872 
	C913.079224,101.675156 912.643616,102.190689 912.182922,102.364449 
	C901.459656,106.408653 890.807800,110.661354 879.976990,114.394699 
	C873.186584,116.735367 866.085388,118.157509 859.194702,120.228218 
	C844.650513,124.598862 830.122986,129.029831 815.647461,133.621841 
	C806.675842,136.467911 797.882935,139.886292 788.883423,142.633621 
	C776.241150,146.492981 763.473145,149.938995 750.776245,153.621567 
	C746.002930,155.006027 741.239441,156.444794 736.539795,158.058029 
	C728.387207,160.856522 720.369995,164.073364 712.146362,166.634598 
	C700.890259,170.140320 689.445435,173.037460 678.171692,176.490036 
	C666.138123,180.175308 654.241333,184.305862 642.224548,188.048294 
	C633.270813,190.836746 624.164368,193.138123 615.227539,195.976547 
	C602.298767,200.082840 589.462830,204.481400 576.585266,208.749298 
	C571.419678,210.461304 566.289978,212.297653 561.071533,213.830811 
	C551.234375,216.720901 541.278076,219.218353 531.492249,222.267258 
	C516.299805,227.000687 501.205292,232.049210 486.076508,236.986313 
	C482.169525,238.261307 478.321014,239.722214 474.391388,240.919678 
	C460.289368,245.217026 446.126526,249.318436 432.061096,253.731140 
	C423.063293,256.554016 414.278748,260.067413 405.252838,262.787598 
	C388.948273,267.701385 372.489136,272.102264 356.183502,277.012695 
	C346.521942,279.922272 337.096863,283.613617 327.446625,286.564972 
	C314.502808,290.523590 301.371307,293.873810 288.454529,297.914032 
	C274.564850,302.258514 260.839294,307.125885 247.024429,311.711823 
	C240.330612,313.933868 233.598892,316.042114 226.879623,318.187073 
	C221.745529,319.825989 216.619492,321.492798 211.462311,323.056335 
	C202.415649,325.799072 193.320786,328.385529 184.298660,331.205566 
	C178.521210,333.011444 172.929718,335.465088 167.091507,337.011597 
	C157.977844,339.425720 148.721985,341.301300 139.537430,343.452271 
	C138.580536,343.676361 137.712402,344.256714 136.779022,344.607788 
	C130.912979,346.814117 125.122673,349.266144 119.150383,351.135620 
	C109.850471,354.046692 100.423958,356.552979 91.055939,359.247589 
	C90.259018,359.476837 89.508781,359.863678 88.719368,360.124359 
	C74.251366,364.902435 59.799667,369.731079 45.302353,374.418610 
	C38.358204,376.663879 31.277559,378.489990 24.347582,380.775391 
	C16.513016,383.359100 8.778193,386.245331 1.000000,389.000000 
	C1.000000,380.979095 1.000000,372.958191 0.999999,364.468628 
z"/>
<path fill="#0083DE" opacity="1.000000" stroke="none" 
	d="
M952.974609,126.992531 
	C950.393799,127.155571 947.710022,126.926422 945.255554,127.570755 
	C941.270752,128.616852 937.472717,130.351593 933.531799,131.592010 
	C915.508301,137.264999 897.471069,142.894501 879.421021,148.482605 
	C871.058960,151.071426 862.676208,153.598328 854.266846,156.028732 
	C845.591370,158.536041 836.768555,160.576614 828.196655,163.389450 
	C815.914734,167.419662 803.896057,172.258835 791.589600,176.205795 
	C780.032349,179.912476 768.137390,182.568665 756.588623,186.298874 
	C739.883911,191.694489 723.357483,197.642273 706.753662,203.350601 
	C706.126404,203.566269 705.488586,203.753815 704.849731,203.933258 
	C692.891907,207.292160 680.848755,210.376968 668.994263,214.067612 
	C651.140320,219.626053 633.476562,225.796082 615.617920,231.338730 
	C604.873657,234.673340 593.843811,237.081802 583.073853,240.341324 
	C575.784302,242.547470 568.817932,245.814453 561.539917,248.066849 
	C548.937439,251.967026 536.118530,255.175079 523.547485,259.167755 
	C503.787079,265.443817 484.199310,272.262207 464.452759,278.583435 
	C455.445404,281.466858 446.204803,283.613617 437.125427,286.283051 
	C431.605438,287.905945 426.233826,290.031219 420.720276,291.678741 
	C410.551819,294.717285 400.255188,297.343170 390.152313,300.579224 
	C383.258362,302.787476 376.653198,305.882324 369.819946,308.301270 
	C366.267609,309.558807 362.438141,310.015594 358.841858,311.170380 
	C345.595032,315.423950 332.402222,319.845581 319.168121,324.139404 
	C316.018341,325.161346 312.762268,325.852356 309.598572,326.835480 
	C302.003815,329.195587 294.460052,331.721985 286.849243,334.027832 
	C276.696014,337.103882 266.452301,339.886688 256.332031,343.064758 
	C243.377090,347.132965 230.545425,351.594635 217.583206,355.638519 
	C210.862961,357.735107 203.936905,359.163910 197.177322,361.145142 
	C192.417404,362.540253 187.836594,364.547333 183.075211,365.936371 
	C177.686707,367.508331 172.174194,368.650696 166.740509,370.074860 
	C165.000397,370.530945 163.347321,371.311829 161.640640,371.904449 
	C158.550247,372.977539 155.415527,373.931946 152.361649,375.099030 
	C148.503082,376.573700 144.800491,378.515961 140.867310,379.725464 
	C125.303558,384.511414 109.634727,388.957275 94.088989,393.799316 
	C85.898529,396.350433 77.881577,399.458649 69.786903,402.317078 
	C69.473343,402.427795 69.152924,402.688049 68.858032,402.658173 
	C58.377693,401.596344 50.294342,408.945129 40.464043,410.702728 
	C29.834452,412.603210 19.624666,416.811737 9.188963,419.867340 
	C6.838389,420.555603 4.310500,420.638306 1.432117,420.999878 
	C1.000000,414.978851 1.000000,408.957703 1.397847,402.382935 
	C8.724295,400.187439 15.754126,398.878693 22.553638,396.812134 
	C29.659527,394.652435 36.475868,391.555267 43.543583,389.250641 
	C51.009850,386.816071 58.656910,384.941650 66.163460,382.623322 
	C74.230339,380.131927 82.183014,377.268066 90.262367,374.820404 
	C102.111603,371.230621 114.064301,367.981506 125.906532,364.369659 
	C135.412292,361.470398 144.828171,358.274261 154.264999,355.152679 
	C157.085098,354.219879 159.787964,352.907532 162.636963,352.091888 
	C171.870163,349.448334 181.212051,347.169617 190.392471,344.359650 
	C211.014359,338.047577 231.571136,331.522064 252.134674,325.020966 
	C254.629440,324.232239 256.950165,322.895081 259.442688,322.096741 
	C265.562408,320.136658 271.764160,318.430908 277.873108,316.439453 
	C280.390106,315.618958 282.673615,314.062561 285.201782,313.299561 
	C293.404053,310.824066 301.710175,308.690582 309.899933,306.176544 
	C316.944885,304.013824 323.827148,301.315613 330.887268,299.209167 
	C338.788147,296.851837 346.882690,295.135468 354.758514,292.704559 
	C365.780884,289.302307 376.664429,285.452545 387.638702,281.890808 
	C391.092743,280.769745 394.661499,280.007416 398.152802,278.994812 
	C403.211029,277.527710 408.288483,276.106262 413.274780,274.420166 
	C415.918091,273.526337 418.278320,271.701477 420.950897,271.003082 
	C440.888397,265.793091 460.772278,260.489258 480.016327,252.948746 
	C485.975128,250.613876 492.576996,249.976562 498.709564,248.015274 
	C507.499054,245.204224 516.064575,241.694992 524.845520,238.854385 
	C532.011536,236.536224 539.400146,234.914612 546.605469,232.707748 
	C556.428650,229.699112 566.168518,226.418915 575.949402,223.271698 
	C585.871582,220.079010 595.797058,216.896378 605.727417,213.729401 
	C610.443481,212.225342 615.165588,210.738831 619.901184,209.297607 
	C624.783203,207.811829 629.703308,206.449890 634.573792,204.928223 
	C642.894287,202.328674 651.143005,199.489792 659.505859,197.037552 
	C670.932068,193.686981 682.504822,190.825439 693.885742,187.334045 
	C702.381104,184.727890 710.634460,181.343750 719.063232,178.507263 
	C732.218933,174.080048 745.388306,169.683380 758.637268,165.547516 
	C766.400757,163.124023 774.337097,161.257080 782.182373,159.091675 
	C788.781250,157.270294 795.439880,155.617035 801.929626,153.460602 
	C810.537903,150.600220 818.937622,147.110092 827.554138,144.277451 
	C838.806641,140.578217 850.193665,137.289978 861.504517,133.766190 
	C876.567505,129.073456 891.623901,124.359215 906.662231,119.588409 
	C919.084717,115.647499 931.415344,111.403778 943.906738,107.699013 
	C950.769348,105.663666 957.671448,101.513199 965.107117,106.116600 
	C962.148743,111.508835 959.190308,116.901070 955.922363,122.889412 
	C955.429199,124.045822 955.245544,124.606133 955.061890,125.166451 
	C955.061951,125.166458 955.055725,125.587364 954.739990,125.854630 
	C953.941101,126.412109 953.457825,126.702324 952.974609,126.992531 
z"/>
<path fill="#0082DD" opacity="1.000000" stroke="none" 
	d="
M965.076294,106.105316 
	C957.671448,101.513199 950.769348,105.663666 943.906738,107.699013 
	C931.415344,111.403778 919.084717,115.647499 906.662231,119.588409 
	C891.623901,124.359215 876.567505,129.073456 861.504517,133.766190 
	C850.193665,137.289978 838.806641,140.578217 827.554138,144.277451 
	C818.937622,147.110092 810.537903,150.600220 801.929626,153.460602 
	C795.439880,155.617035 788.781250,157.270294 782.182373,159.091675 
	C774.337097,161.257080 766.400757,163.124023 758.637268,165.547516 
	C745.388306,169.683380 732.218933,174.080048 719.063232,178.507263 
	C710.634460,181.343750 702.381104,184.727890 693.885742,187.334045 
	C682.504822,190.825439 670.932068,193.686981 659.505859,197.037552 
	C651.143005,199.489792 642.894287,202.328674 634.573792,204.928223 
	C629.703308,206.449890 624.783203,207.811829 619.901184,209.297607 
	C615.165588,210.738831 610.443481,212.225342 605.727417,213.729401 
	C595.797058,216.896378 585.871582,220.079010 575.949402,223.271698 
	C566.168518,226.418915 556.428650,229.699112 546.605469,232.707748 
	C539.400146,234.914612 532.011536,236.536224 524.845520,238.854385 
	C516.064575,241.694992 507.499054,245.204224 498.709564,248.015274 
	C492.576996,249.976562 485.975128,250.613876 480.016327,252.948746 
	C460.772278,260.489258 440.888397,265.793091 420.950897,271.003082 
	C418.278320,271.701477 415.918091,273.526337 413.274780,274.420166 
	C408.288483,276.106262 403.211029,277.527710 398.152802,278.994812 
	C394.661499,280.007416 391.092743,280.769745 387.638702,281.890808 
	C376.664429,285.452545 365.780884,289.302307 354.758514,292.704559 
	C346.882690,295.135468 338.788147,296.851837 330.887268,299.209167 
	C323.827148,301.315613 316.944885,304.013824 309.899933,306.176544 
	C301.710175,308.690582 293.404053,310.824066 285.201782,313.299561 
	C282.673615,314.062561 280.390106,315.618958 277.873108,316.439453 
	C271.764160,318.430908 265.562408,320.136658 259.442688,322.096741 
	C256.950165,322.895081 254.629440,324.232239 252.134674,325.020966 
	C231.571136,331.522064 211.014359,338.047577 190.392471,344.359650 
	C181.212051,347.169617 171.870163,349.448334 162.636963,352.091888 
	C159.787964,352.907532 157.085098,354.219879 154.264999,355.152679 
	C144.828171,358.274261 135.412292,361.470398 125.906532,364.369659 
	C114.064301,367.981506 102.111603,371.230621 90.262367,374.820404 
	C82.183014,377.268066 74.230339,380.131927 66.163460,382.623322 
	C58.656910,384.941650 51.009850,386.816071 43.543583,389.250641 
	C36.475868,391.555267 29.659527,394.652435 22.553638,396.812134 
	C15.754126,398.878693 8.724295,400.187439 1.397847,401.914642 
	C1.000000,397.975464 1.000000,393.950897 1.000000,389.463196 
	C8.778193,386.245331 16.513016,383.359100 24.347582,380.775391 
	C31.277559,378.489990 38.358204,376.663879 45.302353,374.418610 
	C59.799667,369.731079 74.251366,364.902435 88.719368,360.124359 
	C89.508781,359.863678 90.259018,359.476837 91.055939,359.247589 
	C100.423958,356.552979 109.850471,354.046692 119.150383,351.135620 
	C125.122673,349.266144 130.912979,346.814117 136.779022,344.607788 
	C137.712402,344.256714 138.580536,343.676361 139.537430,343.452271 
	C148.721985,341.301300 157.977844,339.425720 167.091507,337.011597 
	C172.929718,335.465088 178.521210,333.011444 184.298660,331.205566 
	C193.320786,328.385529 202.415649,325.799072 211.462311,323.056335 
	C216.619492,321.492798 221.745529,319.825989 226.879623,318.187073 
	C233.598892,316.042114 240.330612,313.933868 247.024429,311.711823 
	C260.839294,307.125885 274.564850,302.258514 288.454529,297.914032 
	C301.371307,293.873810 314.502808,290.523590 327.446625,286.564972 
	C337.096863,283.613617 346.521942,279.922272 356.183502,277.012695 
	C372.489136,272.102264 388.948273,267.701385 405.252838,262.787598 
	C414.278748,260.067413 423.063293,256.554016 432.061096,253.731140 
	C446.126526,249.318436 460.289368,245.217026 474.391388,240.919678 
	C478.321014,239.722214 482.169525,238.261307 486.076508,236.986313 
	C501.205292,232.049210 516.299805,227.000687 531.492249,222.267258 
	C541.278076,219.218353 551.234375,216.720901 561.071533,213.830811 
	C566.289978,212.297653 571.419678,210.461304 576.585266,208.749298 
	C589.462830,204.481400 602.298767,200.082840 615.227539,195.976547 
	C624.164368,193.138123 633.270813,190.836746 642.224548,188.048294 
	C654.241333,184.305862 666.138123,180.175308 678.171692,176.490036 
	C689.445435,173.037460 700.890259,170.140320 712.146362,166.634598 
	C720.369995,164.073364 728.387207,160.856522 736.539795,158.058029 
	C741.239441,156.444794 746.002930,155.006027 750.776245,153.621567 
	C763.473145,149.938995 776.241150,146.492981 788.883423,142.633621 
	C797.882935,139.886292 806.675842,136.467911 815.647461,133.621841 
	C830.122986,129.029831 844.650513,124.598862 859.194702,120.228218 
	C866.085388,118.157509 873.186584,116.735367 879.976990,114.394699 
	C890.807800,110.661354 901.459656,106.408653 912.182922,102.364449 
	C912.643616,102.190689 913.079224,101.675156 913.498108,101.705872 
	C924.941895,102.545067 934.178711,94.754028 945.139099,93.603989 
	C947.346741,93.372353 949.495728,92.033340 951.546509,90.964607 
	C956.301086,88.486771 961.032532,86.438835 966.677185,86.848640 
	C968.955139,87.014015 971.415222,85.739105 973.673157,84.824883 
	C976.162537,83.816925 978.514893,82.470436 981.397339,82.137581 
	C979.962280,84.600182 978.527161,87.062790 977.105713,89.926117 
	C973.497742,95.010361 969.876160,99.693878 965.927979,104.869080 
	C965.392456,105.608406 965.210327,105.874451 965.055115,106.158890 
	C965.055115,106.158890 965.045532,106.094025 965.076294,106.105316 
z"/>
<path fill="#0084E0" opacity="1.000000" stroke="none" 
	d="
M1081.251953,64.265198 
	C1083.989502,64.525795 1087.016602,64.900703 1089.964966,65.605690 
	C1091.624756,66.002556 1093.154419,66.943855 1095.364990,66.706161 
	C1093.394165,65.425194 1091.423462,64.144226 1089.452637,62.863258 
	C1089.823242,62.252388 1090.193848,61.641521 1090.564453,61.030655 
	C1092.559570,60.453552 1094.543091,59.832573 1096.551758,59.307102 
	C1104.246094,57.294136 1112.024048,55.559460 1119.626831,53.247673 
	C1127.071289,50.984016 1134.259888,47.878597 1141.705322,45.618969 
	C1153.103760,42.159714 1164.675415,39.271866 1176.076782,35.821903 
	C1182.531128,33.868881 1188.793823,31.281641 1195.139893,28.971771 
	C1196.848877,28.349691 1198.546631,27.697296 1200.624756,27.029411 
	C1201.000000,43.687561 1201.000000,60.375122 1200.650513,77.620346 
	C1198.668091,78.985840 1197.109375,80.035065 1195.390625,80.564201 
	C1178.156250,85.870087 1160.906250,91.126503 1143.633179,96.304611 
	C1140.166138,97.343956 1137.306396,98.472855 1138.174805,103.039833 
	C1138.296997,103.682526 1136.859863,104.621712 1136.144531,105.423653 
	C1122.472046,85.725220 1104.399780,71.903297 1081.251953,64.265198 
z"/>
<path fill="#0087E6" opacity="1.000000" stroke="none" 
	d="
M1136.269531,105.765831 
	C1136.859863,104.621712 1138.296997,103.682526 1138.174805,103.039833 
	C1137.306396,98.472855 1140.166138,97.343956 1143.633179,96.304611 
	C1160.906250,91.126503 1178.156250,85.870087 1195.390625,80.564201 
	C1197.109375,80.035065 1198.668091,78.985840 1200.650513,78.089005 
	C1201.000000,87.020897 1201.000000,96.041786 1201.000000,105.531357 
	C1198.076538,110.173477 1194.940430,114.215584 1192.266235,118.543144 
	C1180.860107,137.001480 1169.611816,155.557358 1158.250000,174.043182 
	C1156.344971,177.142593 1154.162842,180.071701 1151.660156,183.126785 
	C1151.078003,183.060059 1150.944458,182.946014 1150.810791,182.831970 
	C1153.807617,166.671539 1154.267456,150.459488 1148.953979,134.782578 
	C1145.616821,124.936485 1140.637207,115.647133 1136.269531,105.765831 
z"/>
<path fill="#008DEF" opacity="1.000000" stroke="none" 
	d="
M1095.710815,254.680801 
	C1078.108643,273.526093 1060.564941,292.426758 1042.866821,311.181458 
	C1037.845825,316.502228 1032.040894,321.103302 1027.207520,326.575165 
	C1022.840759,331.518860 1017.430786,334.053833 1011.420349,335.910217 
	C1006.588196,337.402618 1003.539856,336.456970 1001.970825,331.578827 
	C1000.164795,325.964020 999.249512,320.047760 998.164856,314.221954 
	C997.591003,311.139587 997.434509,307.975067 997.168518,304.840912 
	C996.744141,299.838837 993.605652,297.899078 989.069336,297.931580 
	C983.107117,297.974243 977.140442,298.199280 971.188049,298.553741 
	C966.036377,298.860443 963.825989,296.122101 963.624756,291.476837 
	C963.351379,285.168213 963.345215,278.847046 963.302429,272.530731 
	C963.297241,271.769531 963.598022,270.868622 964.059631,270.263214 
	C968.432800,264.527313 972.956848,258.904877 977.262329,253.119492 
	C980.319031,249.012207 983.106201,244.704468 986.167053,240.263657 
	C1019.531677,265.238220 1055.471558,270.130463 1094.629150,254.045898 
	C1095.389526,254.368423 1095.550171,254.524612 1095.710815,254.680801 
z"/>
<path fill="#0090F2" opacity="1.000000" stroke="none" 
	d="
M993.023376,330.928040 
	C996.203857,337.220428 999.184509,343.205261 1002.472839,349.807800 
	C985.309692,364.141083 968.214478,378.417664 951.101929,392.708710 
	C949.548401,391.912750 948.413574,390.822632 947.317078,390.859772 
	C943.121948,391.001984 941.515503,389.150635 941.977722,385.089417 
	C942.062256,384.346710 941.853516,383.270020 941.354126,382.810547 
	C938.210632,379.918732 939.628296,377.022949 941.382263,374.323914 
	C947.113525,365.504822 952.844543,356.717255 952.731934,345.591675 
	C955.345337,344.973999 957.536438,344.456146 959.741150,343.935059 
	C959.476013,339.942200 959.285522,336.170624 958.961121,332.410614 
	C958.520752,327.305817 960.083130,323.650269 965.371277,321.915649 
	C970.788696,320.138611 976.070923,317.949402 982.059326,315.697266 
	C982.168030,314.956024 982.424622,313.205963 982.681152,311.455902 
	C983.127258,311.202332 983.573303,310.948792 984.019348,310.695251 
	C984.885376,311.967743 986.002747,313.137390 986.573120,314.530914 
	C988.752136,319.855011 990.754944,325.251190 993.023376,330.928040 
z"/>
<path fill="#008AEB" opacity="1.000000" stroke="none" 
	d="
M957.924316,202.631683 
	C957.039856,202.107330 955.546692,201.362915 955.270813,200.301987 
	C952.732056,190.538574 950.360962,180.730408 948.079346,170.903168 
	C947.844849,169.893356 948.511108,168.674423 949.000488,167.216507 
	C950.448303,179.083649 952.951477,190.970306 957.924316,202.631683 
z"/>
<path fill="#008AEB" opacity="1.000000" stroke="none" 
	d="
M952.949280,127.383202 
	C953.457825,126.702324 953.941101,126.412109 954.702698,126.061768 
	C953.542664,132.695862 952.012634,139.372299 950.707092,146.092331 
	C950.113953,149.145111 949.965332,152.284256 949.449097,155.754761 
	C949.342590,151.148682 948.974304,146.118698 949.586609,141.211075 
	C950.153992,136.664001 951.769836,132.247742 952.949280,127.383202 
z"/>
<path fill="#0090F5" opacity="1.000000" stroke="none" 
	d="
M946.398071,257.357819 
	C945.905884,256.303345 945.265442,254.926590 944.816589,253.273575 
	C945.422058,254.343399 945.835938,255.689468 946.398071,257.357819 
z"/>
<path fill="#0090F5" opacity="1.000000" stroke="none" 
	d="
M946.312012,261.823242 
	C946.086731,260.844421 946.165649,259.664948 946.343384,258.046387 
	C946.500122,258.945740 946.558167,260.284149 946.312012,261.823242 
z"/>
<path fill="#0087E6" opacity="1.000000" stroke="none" 
	d="
M1151.411377,183.346039 
	C1151.224121,183.782623 1150.837280,184.047287 1150.450439,184.311951 
	C1150.421143,183.906845 1150.391724,183.501709 1150.586670,182.964279 
	C1150.944458,182.946014 1151.078003,183.060059 1151.411377,183.346039 
z"/>
<path fill="#008DEF" opacity="1.000000" stroke="none" 
	d="
M1094.989502,253.976349 
	C1095.270142,253.574112 1095.790161,253.407745 1096.310303,253.241394 
	C1096.256226,253.613815 1096.202271,253.986237 1095.929565,254.519730 
	C1095.550171,254.524612 1095.389526,254.368423 1094.989502,253.976349 
z"/>
<path fill="#0085E1" opacity="1.000000" stroke="none" 
	d="
M955.347229,125.012009 
	C955.245544,124.606133 955.429199,124.045822 955.790100,123.246765 
	C955.855713,123.624535 955.744141,124.241058 955.347229,125.012009 
z"/>
<path fill="#0083DE" opacity="1.000000" stroke="none" 
	d="
M965.309326,106.053375 
	C965.210327,105.874451 965.392456,105.608406 965.768494,105.186157 
	C965.811584,105.323654 965.687561,105.635757 965.309326,106.053375 
z"/>
</svg>